<svg width="94" height="94" viewBox="0 0 94 94" fill="none" xmlns="http://www.w3.org/2000/svg">
<mask id="mask0_0_128" style="mask-type:luminance" maskUnits="userSpaceOnUse" x="6" y="14" width="82" height="68">
<path d="M48.9583 78.3332H13.7083C12.1502 78.3332 10.6559 77.7142 9.55408 76.6124C8.45231 75.5106 7.83334 74.0163 7.83334 72.4582V21.5415C7.83334 19.9834 8.45231 18.489 9.55408 17.3873C10.6559 16.2855 12.1502 15.6665 13.7083 15.6665H80.2917C81.8498 15.6665 83.3441 16.2855 84.4459 17.3873C85.5477 18.489 86.1667 19.9834 86.1667 21.5415V48.8426" stroke="white" stroke-width="2" stroke-linecap="round" stroke-linejoin="round"/>
<path d="M7.83334 21.5415C7.83334 19.9834 8.45231 18.489 9.55408 17.3873C10.6559 16.2855 12.1502 15.6665 13.7083 15.6665H80.2917C81.8498 15.6665 83.3441 16.2855 84.4459 17.3873C85.5477 18.489 86.1667 19.9834 86.1667 21.5415V39.1665H7.83334V21.5415Z" fill="white" stroke="white" stroke-width="2"/>
<path d="M62.6667 68.5415H86.1667M74.4167 56.7915V80.2915" stroke="white" stroke-width="2" stroke-linecap="round" stroke-linejoin="round"/>
<path d="M15.6667 27.4163C15.6667 25.2532 17.4202 23.4997 19.5833 23.4997C21.7464 23.4997 23.5 25.2532 23.5 27.4163C23.5 29.5795 21.7464 31.333 19.5833 31.333C17.4202 31.333 15.6667 29.5795 15.6667 27.4163Z" fill="black"/>
<path d="M27.4167 27.4163C27.4167 25.2532 29.1702 23.4997 31.3333 23.4997C33.4964 23.4997 35.25 25.2532 35.25 27.4163C35.25 29.5795 33.4964 31.333 31.3333 31.333C29.1702 31.333 27.4167 29.5795 27.4167 27.4163Z" fill="black"/>
</mask>
<g mask="url(#mask0_0_128)">
<path d="M0 0H94V94H0V0Z" fill="white"/>
</g>
</svg>
