<svg width="89" height="89" viewBox="0 0 89 89" fill="none" xmlns="http://www.w3.org/2000/svg">
<path d="M39.1113 44.3262V29.2031H20.1641V77.1797H57.7109V47.8027H42.5879C40.6671 47.8027 39.1113 46.247 39.1113 44.3262Z" fill="black" fill-opacity="0.15"/>
<path d="M72.3125 9.73438H62.9258V6.25781C62.9258 5.87539 62.6129 5.5625 62.2305 5.5625H57.3633C56.9809 5.5625 56.668 5.87539 56.668 6.25781V9.73438H43.457V6.25781C43.457 5.87539 43.1441 5.5625 42.7617 5.5625H37.8945C37.5121 5.5625 37.1992 5.87539 37.1992 6.25781V9.73438H27.8125C26.2741 9.73438 25.0312 10.9772 25.0312 12.5156V22.9453H16.6875C15.1491 22.9453 13.9062 24.1882 13.9062 25.7266V80.6562C13.9062 82.1946 15.1491 83.4375 16.6875 83.4375H61.1875C62.7259 83.4375 63.9688 82.1946 63.9688 80.6562V72.3125H72.3125C73.8509 72.3125 75.0938 71.0696 75.0938 69.5312V12.5156C75.0938 10.9772 73.8509 9.73438 72.3125 9.73438ZM57.7109 77.1797H20.1641V29.2031H39.1113V44.3262C39.1113 46.247 40.6671 47.8027 42.5879 47.8027H57.7109V77.1797ZM57.7109 42.2402H44.6738V29.2031H44.6912L57.7109 42.2229V42.2402ZM68.8359 66.0547H63.9688V39.6328L47.2812 22.9453H31.2891V15.9922H37.1992V18.7734C37.1992 19.1559 37.5121 19.4688 37.8945 19.4688H42.7617C43.1441 19.4688 43.457 19.1559 43.457 18.7734V15.9922H56.668V18.7734C56.668 19.1559 56.9809 19.4688 57.3633 19.4688H62.2305C62.6129 19.4688 62.9258 19.1559 62.9258 18.7734V15.9922H68.8359V66.0547Z" fill="white"/>
</svg>
