<svg width="94" height="94" viewBox="0 0 94 94" fill="none" xmlns="http://www.w3.org/2000/svg">
<mask id="mask0_0_139" style="mask-type:luminance" maskUnits="userSpaceOnUse" x="12" y="10" width="70" height="74">
<path d="M45.0417 82.25H17.625C16.5862 82.25 15.59 81.8374 14.8555 81.1028C14.121 80.3683 13.7083 79.3721 13.7083 78.3333V15.6667C13.7083 14.6279 14.121 13.6317 14.8555 12.8972C15.59 12.1626 16.5862 11.75 17.625 11.75H72.4583C73.4971 11.75 74.4933 12.1626 75.2278 12.8972C75.9624 13.6317 76.375 14.6279 76.375 15.6667V38.1875" stroke="white" stroke-width="2" stroke-linecap="round" stroke-linejoin="round"/>
<path d="M71.7455 52.8752C76.4651 52.8752 80.2917 56.5569 80.2917 61.1002C80.2917 67.0144 74.5929 72.0669 71.7455 74.8085C69.8472 76.6363 67.4737 78.4641 64.625 80.2919C61.7763 78.4641 59.4028 76.6363 57.5045 74.8085C54.6551 72.0669 48.9583 67.0144 48.9583 61.1002C48.9583 56.5569 52.7849 52.8752 57.5045 52.8752C60.4753 52.8752 63.0936 54.3361 64.625 56.553C65.4252 55.409 66.4913 54.4765 67.7317 53.8359C68.972 53.1952 70.3495 52.8655 71.7455 52.8752Z" fill="#555555" stroke="white" stroke-width="2" stroke-linejoin="round"/>
<path d="M29.375 27.4165H60.7083" stroke="white" stroke-width="2" stroke-linecap="round"/>
</mask>
<g mask="url(#mask0_0_139)">
<path d="M0 0H94V94H0V0Z" fill="white"/>
</g>
</svg>
